<svg id="eQg5ws0EZ4M1" xmlns="http://www.w3.org/2000/svg" xmlns:xlink="http://www.w3.org/1999/xlink" viewBox="0 0 281 128" shape-rendering="geometricPrecision" text-rendering="geometricPrecision"><defs><linearGradient id="eQg5ws0EZ4M3-fill" x1="-0.096256" y1="-0.20656" x2="1" y2="1" spreadMethod="pad" gradientUnits="objectBoundingBox" gradientTransform="translate(0 0)"><stop id="eQg5ws0EZ4M3-fill-0" offset="0%" stop-color="rgba(0,0,0,0)"/><stop id="eQg5ws0EZ4M3-fill-1" offset="100%" stop-color="rgba(0,0,0,0.15)"/></linearGradient><linearGradient id="eQg5ws0EZ4M5-fill" x1="-0.280009" y1="-0.335628" x2="1.214382" y2="1.194792" spreadMethod="pad" gradientUnits="objectBoundingBox" gradientTransform="translate(0 0)"><stop id="eQg5ws0EZ4M5-fill-0" offset="0%" stop-color="#202020"/><stop id="eQg5ws0EZ4M5-fill-1" offset="100%" stop-color="#7c7c7c"/></linearGradient><linearGradient id="eQg5ws0EZ4M6-fill" x1="0.267846" y1="-0.298237" x2="0.68213" y2="1.160906" spreadMethod="pad" gradientUnits="objectBoundingBox" gradientTransform="translate(0 0)"><stop id="eQg5ws0EZ4M6-fill-0" offset="1%" stop-color="#303030"/><stop id="eQg5ws0EZ4M6-fill-1" offset="48%" stop-color="#818181"/><stop id="eQg5ws0EZ4M6-fill-2" offset="100%" stop-color="#919191"/></linearGradient><linearGradient id="eQg5ws0EZ4M8-fill" x1="0.267847" y1="-0.264929" x2="0.766447" y2="1.35709" spreadMethod="pad" gradientUnits="objectBoundingBox" gradientTransform="translate(0 0)"><stop id="eQg5ws0EZ4M8-fill-0" offset="0%" stop-color="#d3fff5"/><stop id="eQg5ws0EZ4M8-fill-1" offset="100%" stop-color="rgba(188,188,188,0.75)"/></linearGradient><linearGradient id="eQg5ws0EZ4M9-fill" x1="-0.142229" y1="-0.147846" x2="1.079654" y2="1.373184" spreadMethod="pad" gradientUnits="objectBoundingBox" gradientTransform="translate(0 0)"><stop id="eQg5ws0EZ4M9-fill-0" offset="0%" stop-color="#a5d0df"/><stop id="eQg5ws0EZ4M9-fill-1" offset="100%" stop-color="#005370"/></linearGradient><linearGradient id="eQg5ws0EZ4M11-fill" x1="0.026185" y1="-0.104433" x2="0.89395" y2="0.895567" spreadMethod="pad" gradientUnits="objectBoundingBox" gradientTransform="translate(0 0)"><stop id="eQg5ws0EZ4M11-fill-0" offset="0%" stop-color="rgba(0,0,0,0)"/><stop id="eQg5ws0EZ4M11-fill-1" offset="100%" stop-color="rgba(0,0,0,0.15)"/></linearGradient><linearGradient id="eQg5ws0EZ4M14-fill" x1="0.316512" y1="0.010675" x2="0.60585" y2="0.775477" spreadMethod="pad" gradientUnits="objectBoundingBox" gradientTransform="translate(0 0)"><stop id="eQg5ws0EZ4M14-fill-0" offset="0%" stop-color="#0055da"/><stop id="eQg5ws0EZ4M14-fill-1" offset="100%" stop-color="#003485"/></linearGradient><linearGradient id="eQg5ws0EZ4M15-fill" x1="0.094426" y1="0.06527" x2="0.822341" y2="1" spreadMethod="pad" gradientUnits="objectBoundingBox" gradientTransform="translate(0 0)"><stop id="eQg5ws0EZ4M15-fill-0" offset="0%" stop-color="#407cdc"/><stop id="eQg5ws0EZ4M15-fill-1" offset="100%" stop-color="#073f97"/></linearGradient></defs><g transform="translate(-9.42392-84.746628)"><rect width="29.149556" height="34.758671" rx="0" ry="0" transform="matrix(6.579253 0-2.57115 3.064178 98.793739 106.746625)" fill="url(#eQg5ws0EZ4M3-fill)"/><g transform="translate(0 0.000001)"><rect width="29.149556" height="34.758671" rx="0" ry="0" transform="matrix(6.579253 0-2.57115 3.064178 98.793739 96.746626)" fill="url(#eQg5ws0EZ4M5-fill)" stroke-width="0.1" stroke-miterlimit="1"/><path d="M98.79372,96.74663L17.81494,193.25338h183.3913l80.97877-96.50675h-183.3913.00001Zm0-10v0h191.78228v.00002l.00002-.00002v10L201.20625,203.25338h-191.7823v-10v0L98.79372,86.74663Z" fill="url(#eQg5ws0EZ4M6-fill)" stroke-width="0.6"/></g><g transform="translate(0 0.000001)"><path d="M290.57602,84.74663l-.00002,2-89.36976,106.50675v0h-191.7823l-.00002-2h191.78233v0L290.57602,84.74663Z" fill="url(#eQg5ws0EZ4M8-fill)" fill-opacity="0.6" stroke-width="0.6"/><rect width="29.149556" height="34.758671" rx="0" ry="0" transform="matrix(6.579253 0-2.57115 3.064178 98.793707 84.746625)" fill="url(#eQg5ws0EZ4M9-fill)" fill-opacity="0.15" stroke-width="0.1" stroke-opacity="0.5" stroke-miterlimit="1"/></g></g><g transform="translate(-9.424015-85.746622)"><path d="M131.74666,139.7752v-35h-34.99998v-30h34.99998v-35h30v35h35.00002v30h-35.00002v35h-30Z" transform="matrix(1.305407 0-.642788 0.766044 16.1422 79.228207)" fill="url(#eQg5ws0EZ4M11-fill)" stroke-width="0.5"/><g transform="translate(0 0.000001)"><path d="M131.74666,139.7752v-35h-34.99998v-30h34.99998v-35h30v35h35.00002v30h-35.00002v35h-30Z" transform="matrix(1.305407 0-.642788 0.766044 16.1422 71.228207)" fill="rgba(0,70,180,0.8)" stroke-width="0.5"/><path d="M98.27948,178.30222v-5h39.16222v5h-39.16222Zm61.65987-31.81155h45.6892l.00008,5h-45.68936l.00008-5Zm45.6892,0l19.28363-22.98133v5l-19.28355,22.98133-.00008-5Zm-45.68928,5l-22.49749,26.81156-.00008-5l22.49765-26.81155-.00008,4.99999Zm-84.85145-5h45.68923v5h-45.77713l.0879-5ZM201.72046,96.69778v5l-22.49757,26.81156v-5l22.49757-26.81156Z" fill="url(#eQg5ws0EZ4M14-fill)" stroke-width="0.6"/><path d="M161.74666,39.7752v35h35.00002v30h-35.00002v35h-30v-35h-34.99998v-30h34.99998v-35h30" transform="matrix(1.305407 0-.642788 0.766044 16.1422 66.228207)" fill="url(#eQg5ws0EZ4M15-fill)" stroke-width="0.5"/></g></g></svg>
